<svg xmlns="http://www.w3.org/2000/svg" viewBox="0 0 512 512" role="img" aria-labelledby="title desc">
  <title id="title">ButterFi Console</title>
  <desc id="desc">ButterFi install icon with radio arcs and BF monogram.</desc>
  <defs>
    <linearGradient id="bg" x1="0" x2="1" y1="0" y2="1">
      <stop offset="0%" stop-color="#156f57"/>
      <stop offset="100%" stop-color="#083f33"/>
    </linearGradient>
    <linearGradient id="accent" x1="0" x2="1" y1="0" y2="1">
      <stop offset="0%" stop-color="#f7d6a7"/>
      <stop offset="100%" stop-color="#e49f45"/>
    </linearGradient>
  </defs>
  <rect width="512" height="512" rx="116" fill="url(#bg)"/>
  <path d="M97 175c42-56 101-92 159-92 57 0 117 35 160 94" fill="none" stroke="#dff6eb" stroke-linecap="round" stroke-width="22" opacity="0.56"/>
  <path d="M141 224c31-40 72-65 115-65 43 0 85 26 117 67" fill="none" stroke="#dff6eb" stroke-linecap="round" stroke-width="18" opacity="0.8"/>
  <path d="M201 112l-44 45" fill="none" stroke="url(#accent)" stroke-linecap="round" stroke-width="14"/>
  <circle cx="256" cy="302" r="116" fill="#fbf6ee"/>
  <path d="M191 227h72c39 0 62 19 62 50 0 22-12 38-35 46 28 8 43 25 43 52 0 35-25 57-69 57h-73V227zm67 82c23 0 36-8 36-24 0-15-11-22-34-22h-36v46h43zm8 87c23 0 37-9 37-27 0-18-14-27-42-27h-37v54h42z" fill="#1c3b31"/>
  <rect x="156" y="414" width="200" height="22" rx="11" fill="url(#accent)" opacity="0.95"/>
</svg>